<svg xmlns="http://www.w3.org/2000/svg" width="16" height="16" viewBox="0 0 16 16" fill="none">
  <path d="M3.58976 5.50017L4.83337 5.50006V5.83334H1.83337V2.83334H2.16669L2.16663 3.99944L2.16657 5.49749L3.06639 4.29979C4.19231 2.80113 5.98308 1.83334 8.00004 1.83334C11.4058 1.83334 14.1667 4.59425 14.1667 8.00001C14.1667 11.4057 11.4058 14.1667 8.00004 14.1667C4.76261 14.1667 2.10786 11.6719 1.85335 8.50001H2.18784C2.44145 11.4876 4.94681 13.8333 8.00004 13.8333C11.2217 13.8333 13.8334 11.2217 13.8334 8.00001C13.8334 4.77835 11.2217 2.16668 8.00004 2.16668C5.99454 2.16668 4.22566 3.17918 3.17654 4.71859L2.64383 5.50026L3.58976 5.50017ZM8.16669 5.16668L8.16657 7.72332L8.16656 7.93041L8.31299 8.07686L10.1214 9.88558L9.88569 10.1213L7.83325 8.06828L7.83336 5.16668H8.16669Z" fill="black" stroke="#6F6F6F"/>
</svg>