<svg xmlns="http://www.w3.org/2000/svg" width="14" height="14" viewBox="0 0 14 14" fill="none">
  <path d="M9.91663 11.6667C10.8831 11.6667 11.6666 10.8832 11.6666 9.91666C11.6666 8.95016 10.8831 8.16666 9.91663 8.16666C8.95013 8.16666 8.16663 8.95016 8.16663 9.91666C8.16663 10.8832 8.95013 11.6667 9.91663 11.6667Z" stroke="#6F6F6F" stroke-linecap="round" stroke-linejoin="round"/>
  <path d="M6.24163 11.6667H2.33329C2.02387 11.6667 1.72713 11.5437 1.50833 11.325C1.28954 11.1062 1.16663 10.8094 1.16663 10.5V2.91666C1.16663 2.60724 1.28954 2.3105 1.50833 2.0917C1.72713 1.87291 2.02387 1.75 2.33329 1.75H4.60829C4.80341 1.74808 4.99589 1.79514 5.16812 1.88686C5.34034 1.97858 5.48682 2.11203 5.59413 2.275L6.06663 2.97499C6.17286 3.1363 6.31747 3.26872 6.4875 3.36035C6.65753 3.45198 6.84765 3.49996 7.04079 3.49999H11.6666C11.976 3.49999 12.2728 3.62291 12.4916 3.8417C12.7104 4.0605 12.8333 4.35724 12.8333 4.66666V7.05833" stroke="#6F6F6F" stroke-linecap="round" stroke-linejoin="round"/>
  <path d="M12.25 12.25L11.375 11.375" stroke="#6F6F6F" stroke-linecap="round" stroke-linejoin="round"/>
</svg>