<svg xmlns="http://www.w3.org/2000/svg" width="10" height="10" viewBox="0 0 10 10" fill="none">
  <g clip-path="url(#clip0_1_7048)">
    <path d="M8.51958 8.73H8.72788L8.72792 8.5217L8.72833 5.90253V5.9025C8.72833 5.2552 8.66078 4.63426 8.36993 4.17291C8.0652 3.68952 7.54363 3.42125 6.74208 3.42125C6.22853 3.42125 5.81758 3.60197 5.52708 3.84727V3.75V3.54167H5.31875H3.89625H3.68792V3.75V8.52167V8.73H3.89625H5.37708H5.58542V8.52167V6.16042C5.58542 5.85296 5.61651 5.59376 5.71496 5.41534C5.76147 5.33104 5.82207 5.26678 5.90314 5.22194C5.98542 5.17643 6.1011 5.14417 6.26708 5.14417C6.42388 5.14417 6.52313 5.18043 6.58919 5.22655C6.6557 5.273 6.70645 5.34196 6.74437 5.43773C6.82494 5.64124 6.83042 5.91553 6.83042 6.20125V8.52167V8.73H7.03875H8.51958ZM2.96625 8.73H3.17458V8.52167V3.75V3.54167H2.96625H1.48125H1.27292V3.75V8.52167V8.73H1.48125H2.96625ZM1.15583 2.23667C1.15583 2.82572 1.63143 3.30542 2.22375 3.30542C2.81352 3.30542 3.29208 2.82618 3.29208 2.23667C3.29208 1.64744 2.81381 1.16875 2.22375 1.16875C1.63211 1.16875 1.15583 1.64777 1.15583 2.23667ZM0.737917 0.208333H9.25917C9.55745 0.208333 9.79167 0.443315 9.79167 0.720417V9.27958C9.79167 9.55702 9.55753 9.79167 9.25917 9.79167H0.737917C0.4403 9.79167 0.208333 9.55816 0.208333 9.27958V0.720417C0.208333 0.442184 0.440379 0.208333 0.737917 0.208333Z" fill="#0A66C2" stroke="#0A66C2" stroke-width="0.416667"/>
  </g>
  <defs>
    <clipPath id="clip0_1_7048">
      <rect width="10" height="10" fill="white"/>
    </clipPath>
  </defs>
</svg>