<svg xmlns="http://www.w3.org/2000/svg" width="16" height="16" viewBox="0 0 16 16" fill="none">
  <path d="M7.99998 8.66668C8.36817 8.66668 8.66665 8.3682 8.66665 8.00001C8.66665 7.63182 8.36817 7.33334 7.99998 7.33334C7.63179 7.33334 7.33331 7.63182 7.33331 8.00001C7.33331 8.3682 7.63179 8.66668 7.99998 8.66668Z" fill="#6F6F6F" stroke="#6F6F6F" stroke-linecap="round" stroke-linejoin="round"/>
  <path d="M12.6667 8.66668C13.0349 8.66668 13.3333 8.3682 13.3333 8.00001C13.3333 7.63182 13.0349 7.33334 12.6667 7.33334C12.2985 7.33334 12 7.63182 12 8.00001C12 8.3682 12.2985 8.66668 12.6667 8.66668Z" fill="#6F6F6F" stroke="#6F6F6F" stroke-linecap="round" stroke-linejoin="round"/>
  <path d="M3.33335 8.66668C3.70154 8.66668 4.00002 8.3682 4.00002 8.00001C4.00002 7.63182 3.70154 7.33334 3.33335 7.33334C2.96516 7.33334 2.66669 7.63182 2.66669 8.00001C2.66669 8.3682 2.96516 8.66668 3.33335 8.66668Z" fill="#6F6F6F" stroke="#6F6F6F" stroke-linecap="round" stroke-linejoin="round"/>
</svg>